# Blender 4.3.2
# www.blender.org
mtllib beehive.mtl
o _0_0
v -0.087311 -0.071600 -0.196436
v 0.028334 0.236363 -0.466740
v 0.124807 0.211295 -0.480774
v -0.055619 0.224340 -0.431153
v 0.245907 0.110715 -0.442558
v -0.155896 0.283092 -0.444169
v 0.263903 0.017528 -0.374793
v -0.283536 0.252017 -0.380348
v 0.334094 -0.101393 -0.306606
v -0.324005 0.195284 -0.324514
v 0.335472 -0.157470 -0.264456
v -0.386607 0.168926 -0.284775
v 0.316555 -0.230173 -0.203285
v -0.435499 0.126353 -0.237037
v 0.265159 -0.279646 -0.144479
v -0.474009 0.079713 -0.189484
v 0.208762 -0.304968 -0.104241
v -0.474879 0.021286 -0.140717
v 0.138820 -0.394916 -0.005335
v -0.436122 -0.052450 -0.092530
v 0.041711 -0.417965 0.047106
v -0.441089 -0.168331 0.004879
v -0.391825 -0.248911 0.055207
v -0.048272 -0.391767 0.056218
v -0.087311 -0.071600 -0.196436
v -0.326712 -0.287078 0.064168
v -0.114607 -0.356843 0.049923
v -0.253128 -0.302641 0.052413
v -0.171533 -0.296776 0.019839
v 0.121161 0.443680 0.184403
v 0.293300 0.160088 0.042441
v 0.323229 0.219201 -0.043663
v 0.257678 0.289230 -0.096098
v 0.254037 0.342738 -0.162418
v 0.175164 0.400719 -0.193761
v 0.102406 0.411931 -0.168151
v 0.049588 0.404388 -0.133117
v -0.024757 0.456884 -0.160053
v -0.090087 0.433019 -0.099167
v -0.108668 0.400859 -0.051192
v -0.146045 0.393456 -0.023912
v -0.209670 0.356901 0.051483
v 0.365027 0.054719 -0.169478
v 0.336636 -0.043797 -0.059673
v 0.164234 0.321525 -0.356731
v 0.276253 0.234854 -0.316036
v -0.003091 0.334002 -0.297687
v -0.239933 0.319911 -0.186988
v -0.098530 0.392715 -0.317274
v -0.207230 0.366582 -0.246863
v -0.291349 0.300711 -0.146866
v -0.372950 0.233863 -0.046915
v 0.334094 -0.101393 -0.306606
v 0.335472 -0.157470 -0.264456
v 0.316555 -0.230173 -0.203285
v 0.290217 0.153119 -0.237050
v 0.072272 0.342895 -0.337309
v 0.124807 0.211295 -0.480774
v 0.028334 0.236363 -0.466740
v -0.155896 0.283092 -0.444169
v -0.324005 0.195284 -0.324514
v -0.283536 0.252017 -0.380348
v -0.386607 0.168926 -0.284775
v -0.435499 0.126353 -0.237037
v -0.474009 0.079713 -0.189484
v 0.263903 0.017528 -0.374793
v 0.245907 0.110715 -0.442558
v -0.055619 0.224340 -0.431153
v 0.168400 -0.175537 0.140321
v -0.109858 -0.148490 0.226910
v -0.048272 -0.391767 0.056218
v -0.010050 0.104961 0.257905
v 0.181382 0.080967 0.192953
v 0.252521 -0.109667 0.040323
v 0.208762 -0.304968 -0.104241
v 0.138820 -0.394916 -0.005335
v 0.041711 -0.417965 0.047106
v -0.168853 0.218013 0.199249
v -0.335136 0.021494 0.149374
v -0.326712 -0.287078 0.064168
v 0.293300 0.160088 0.042441
v 0.121161 0.443680 0.184403
v 0.265159 -0.279646 -0.144479
v -0.355302 0.128172 0.051251
v -0.441089 -0.168331 0.004879
v -0.391825 -0.248911 0.055207
v 0.336636 -0.043797 -0.059673
v -0.209670 0.356901 0.051483
v -0.436122 -0.052450 -0.092530
v 0.316555 -0.230173 -0.203285
v -0.372950 0.233863 -0.046915
v -0.474879 0.021286 -0.140717
v -0.474009 0.079713 -0.189484
v 0.162087 0.511314 0.156259
v 0.222613 0.542184 0.135827
v 0.270769 0.457781 0.221674
v 0.113973 0.493473 0.255064
v 0.202528 0.448569 0.227590
v 0.076911 0.449003 0.227870
v 0.126121 0.483504 0.166832
v 0.176389 0.534776 0.281874
v 0.082587 0.414242 0.184134
v 0.155013 0.432864 0.218342
v 0.115569 0.439735 0.146904
v 0.134833 0.405977 0.181242
v -0.171533 -0.296776 0.019839
v -0.114607 -0.356843 0.049923
v -0.109858 -0.148490 0.226910
v -0.253128 -0.302641 0.052413
v -0.326712 -0.287078 0.064168
v -0.253128 -0.302641 0.052413
v -0.109858 -0.148490 0.226910
v -0.048272 -0.391767 0.056218
v 0.041711 -0.417965 0.047106
v 0.168400 -0.175537 0.140321
v -0.335136 0.021494 0.149374
v -0.391825 -0.248911 0.055207
v -0.326712 -0.287078 0.064168
v -0.109858 -0.148490 0.226910
v -0.114607 -0.356843 0.049923
v -0.048272 -0.391767 0.056218
v 0.222613 0.542184 0.135827
v 0.176389 0.534776 0.281874
v 0.270769 0.457781 0.221674
vn -0.2490 -0.5985 -0.7615
vn -0.2565 -0.5809 -0.7725
vn -0.2565 -0.5810 -0.7725
vn -0.2457 -0.5889 -0.7699
vn -0.2490 -0.5983 -0.7616
vn -0.2457 -0.5889 -0.7700
vn -0.2490 -0.5984 -0.7615
vn -0.2571 -0.6188 -0.7423
vn 0.2636 0.8834 0.3873
vn 0.8507 0.0392 0.5242
vn 0.9103 0.3933 0.1294
vn 0.8982 0.4396 -0.0068
vn 0.8418 0.5392 -0.0246
vn 0.3787 0.8959 -0.2321
vn -0.0821 0.9698 -0.2296
vn 0.1988 0.9281 -0.3148
vn 0.1659 0.9612 -0.2203
vn -0.4553 0.8796 0.1379
vn -0.4530 0.8860 0.0986
vn -0.3806 0.9247 0.0036
vn -0.5765 0.6871 0.4423
vn 0.9792 0.1664 -0.1158
vn 0.9199 -0.2163 0.3272
vn 0.3669 0.7482 -0.5529
vn 0.8756 0.3664 -0.3146
vn 0.1107 0.8219 -0.5587
vn -0.6348 0.7677 -0.0872
vn 0.0560 0.8532 -0.5186
vn -0.6066 0.7880 -0.1053
vn -0.5726 0.8027 -0.1670
vn -0.8227 0.5254 0.2171
vn 0.9696 0.0645 -0.2359
vn 0.9850 -0.1618 0.0590
vn 0.9237 -0.2926 0.2473
vn 0.9401 0.2382 -0.2438
vn -0.1323 0.8611 -0.4908
vn 0.3480 0.6515 -0.6741
vn -0.1415 0.7849 -0.6033
vn 0.0100 0.7690 -0.6392
vn -0.7082 0.6817 -0.1837
vn -0.6656 0.7073 -0.2384
vn -0.6435 0.7247 -0.2461
vn -0.7664 0.6333 -0.1077
vn -0.8787 0.4578 0.1351
vn 0.9287 0.1363 -0.3449
vn 0.8519 0.2646 -0.4518
vn 0.0649 0.7496 -0.6587
vn 0.5641 -0.3899 0.7278
vn -0.0856 -0.2655 0.9603
vn 0.2093 -0.5262 0.8242
vn 0.0334 0.0360 0.9988
vn 0.6324 -0.0638 0.7720
vn 0.8213 -0.2518 0.5119
vn 0.8071 -0.4233 0.4116
vn 0.6970 -0.4793 0.5334
vn 0.4977 -0.5241 0.6910
vn -0.4777 0.3686 0.7974
vn -0.6833 0.0750 0.7263
vn -0.4753 -0.2483 0.8441
vn 0.8506 0.0392 0.5243
vn 0.2636 0.8835 0.3873
vn 0.7954 -0.4241 0.4329
vn -0.7807 0.3316 0.5297
vn -0.8649 0.0769 0.4961
vn -0.7625 -0.0636 0.6439
vn -0.5765 0.6870 0.4423
vn -0.9006 0.1654 0.4019
vn 0.9237 -0.2926 0.2474
vn -0.8227 0.5253 0.2172
vn -0.8919 0.2051 0.4029
vn -0.8788 0.4577 0.1352
vn -0.4132 0.1425 -0.8994
vn -0.4597 0.1679 -0.8721
vn 0.1126 -0.9867 0.1177
vn -0.5887 0.2892 0.7549
vn 0.1862 -0.9756 0.1159
vn -0.8698 -0.1048 0.4821
vn -0.1604 0.2730 -0.9485
vn -0.4684 0.3699 0.8023
vn -0.9025 -0.3893 0.1844
vn 0.4983 -0.8594 0.1144
vn 0.0672 0.4100 -0.9096
vn 0.7111 -0.6933 0.1167
vn -0.2766 -0.7395 0.6137
vn -0.7328 -0.4321 0.5256
vn 0.2584 -0.8204 0.5101
vn -0.0477 -0.7299 0.6819
vn -0.0110 -0.3533 0.9355
vn -0.2772 -0.2601 0.9249
vn -0.3791 -0.5943 0.7093
vn 0.7044 0.6617 0.2566
vt 0.340023 0.217760
vt 0.398473 0.415824
vt 0.336151 0.445681
vt 0.437335 0.381413
vt 0.263984 0.448960
vt 0.515130 0.377156
vt 0.198669 0.422473
vt 0.563751 0.305386
vt 0.098963 0.403541
vt 0.578253 0.250426
vt 0.070392 0.378033
vt 0.605528 0.212091
vt 0.054306 0.321558
vt 0.616345 0.155183
vt 0.067133 0.260532
vt 0.610408 0.111066
vt 0.095217 0.213791
vt 0.584707 0.077124
vt 0.097293 0.132310
vt 0.500531 0.067681
vt 0.131548 0.071642
vt 0.447525 0.027754
vt 0.412283 0.018551
vt 0.182391 0.051287
vt 0.380725 0.019249
vt 0.235851 0.045633
vt 0.317252 0.036493
vt 0.277095 0.063851
vt 0.605719 -0.002607
vt 0.134884 -0.113582
vt 0.209321 -0.138057
vt 0.358332 -0.157858
vt 0.429435 -0.159488
vt 0.488413 -0.159488
vt 0.535929 -0.157858
vt 0.604459 -0.157858
vt 0.660125 -0.157858
vt 0.717294 -0.157858
vt 0.764729 -0.154611
vt 0.812291 -0.148118
vt 0.911316 -0.138377
vt 0.110680 -0.269660
vt -0.015507 -0.269660
vt 0.453899 -0.269660
vt 0.377285 -0.269660
vt 0.596219 -0.269660
vt 0.796853 -0.269660
vt 0.675478 -0.269660
vt 0.750026 -0.269660
vt 0.874848 -0.269660
vt 0.954877 -0.269660
vt 0.075112 -0.421494
vt -0.000392 -0.421494
vt -0.024990 -0.421494
vt 0.256305 -0.269660
vt 0.513192 -0.269660
vt 0.437988 -0.421494
vt 0.509188 -0.421494
vt 0.677603 -0.421494
vt 0.810106 -0.421494
vt 0.760733 -0.421494
vt 0.901356 -0.421494
vt 0.939409 -0.421494
vt 0.960273 -0.421494
vt 0.209172 -0.421494
vt 0.352577 -0.421494
vt 0.585623 -0.421494
vt 0.973487 0.964791
vt 0.985716 0.964239
vt 0.983128 0.955368
vt 0.971547 0.972346
vt 0.962960 0.972486
vt 0.958726 0.965457
vt 0.957948 0.957048
vt 0.973720 0.955661
vt 0.981917 0.955514
vt 0.983646 0.955368
vt 0.942229 0.972825
vt 0.942194 0.980986
vt 0.951597 0.957606
vt 0.981979 0.955514
vt 0.943965 0.966123
vt 0.942245 0.958429
vt 0.950062 0.957741
vt 0.942176 0.958435
vt 0.168798 0.475440
vt 0.177647 0.440608
vt 0.214243 0.417976
vt 0.137578 0.469886
vt 0.195597 0.453511
vt 0.155123 0.516004
vt 0.168736 0.500448
vt 0.129844 0.412488
vt 0.185582 0.543074
vt 0.190693 0.486869
vt 0.192576 0.530350
vt 0.207215 0.521297
vt 0.976871 0.954512
vt 0.981920 0.954940
s 1
usemtl Mdl_77_Mtl_m_fg_honeycomb
f 1/1/1 2/2/2 3/3/3
f 1/1/1 4/4/4 2/2/2
f 1/1/1 3/3/3 5/5/5
f 1/1/1 6/6/6 4/4/4
f 1/1/1 5/5/5 7/7/6
f 1/1/1 8/8/6 6/6/6
f 1/1/1 7/7/6 9/9/6
f 1/1/1 10/10/6 8/8/6
f 1/1/1 9/9/6 11/11/6
f 1/1/1 12/12/6 10/10/6
f 1/1/1 11/11/6 13/13/7
f 1/1/1 14/14/6 12/12/6
f 1/1/1 13/13/7 15/15/8
f 1/1/1 16/16/5 14/14/6
f 1/1/1 15/15/8 17/17/8
f 1/1/1 18/18/8 16/16/5
f 1/1/1 17/17/8 19/19/8
f 1/1/1 20/20/8 18/18/8
f 1/1/1 19/19/8 21/21/8
f 1/1/1 22/22/8 20/20/8
f 1/1/1 23/23/8 22/22/8
s 0
f 21/21/8 24/24/8 25/1/8
f 23/23/8 25/1/8 26/25/8
f 24/24/8 27/26/8 25/1/8
f 26/25/8 25/1/8 28/27/8
f 27/26/8 29/28/8 25/1/8
f 25/1/8 29/28/8 28/27/8
s 1
f 30/29/9 31/30/10 32/31/11
f 30/29/9 32/31/11 33/32/12
f 30/29/9 33/32/12 34/33/13
f 30/29/9 34/33/13 35/34/14
f 30/29/9 35/34/14 36/35/15
f 30/29/9 36/35/15 37/36/16
f 30/29/9 37/36/16 38/37/17
f 30/29/9 38/37/17 39/38/18
f 30/29/9 39/38/18 40/39/19
f 30/29/9 40/39/19 41/40/20
f 30/29/9 41/40/20 42/41/21
f 31/30/10 43/42/22 32/31/11
f 32/31/11 43/42/22 33/32/12
f 31/30/10 44/43/23 43/42/22
f 35/34/14 45/44/24 36/35/15
f 34/33/13 45/44/24 35/34/14
f 34/33/13 46/45/25 45/44/24
f 34/33/13 33/32/12 46/45/25
f 37/36/16 36/35/15 47/46/26
f 37/36/16 47/46/26 38/37/17
f 40/39/19 48/47/27 41/40/20
f 39/38/18 48/47/27 40/39/19
f 39/38/18 38/37/17 49/48/28
f 38/37/17 47/46/26 49/48/28
f 39/38/18 50/49/29 48/47/27
f 39/38/18 49/48/28 50/49/29
f 41/40/20 48/47/27 51/50/30
f 42/41/21 41/40/20 51/50/30
f 42/41/21 51/50/30 52/51/31
f 44/43/23 53/52/32 43/42/22
f 44/43/23 54/53/33 53/52/32
f 44/43/23 55/54/34 54/53/33
f 33/32/12 56/55/35 46/45/25
f 33/32/12 43/42/22 56/55/35
f 43/42/22 53/52/32 56/55/35
f 36/35/15 57/56/36 47/46/26
f 45/44/24 57/56/36 36/35/15
f 45/44/24 46/45/25 58/57/37
f 45/44/24 58/57/37 59/58/38
f 45/44/24 59/58/38 57/56/36
f 50/49/29 49/48/28 60/59/39
f 50/49/29 61/60/40 48/47/27
f 50/49/29 62/61/41 61/60/40
f 50/49/29 60/59/39 62/61/41
f 63/62/42 48/47/27 61/60/40
f 63/62/42 51/50/30 48/47/27
f 52/51/31 51/50/30 63/62/42
f 52/51/31 63/62/42 64/63/43
f 52/51/31 64/63/43 65/64/44
f 53/52/32 66/65/45 56/55/35
f 46/45/25 67/66/46 58/57/37
f 46/45/25 56/55/35 67/66/46
f 67/66/46 56/55/35 66/65/45
f 68/67/47 47/46/26 57/56/36
f 68/67/47 49/48/28 47/46/26
f 68/67/47 60/59/39 49/48/28
f 59/58/38 68/67/47 57/56/36
f 69/68/48 70/69/49 71/70/50
f 69/68/48 72/71/51 70/69/49
f 69/68/48 73/72/52 72/71/51
f 69/68/48 74/73/53 73/72/52
f 69/68/48 75/74/54 74/73/53
f 69/68/48 76/75/55 75/74/54
f 69/68/48 77/76/56 76/75/55
f 70/69/49 72/71/51 78/72/57
f 70/69/49 78/72/57 79/68/58
f 70/69/49 79/68/58 80/77/59
f 73/72/52 74/73/53 81/78/60
f 73/72/52 81/78/60 82/79/61
f 72/71/51 82/79/61 78/72/57
f 73/72/52 82/79/61 72/71/51
f 75/74/54 83/80/62 74/73/53
f 79/68/58 78/72/57 84/73/63
f 79/68/58 84/73/63 85/75/64
f 79/68/58 85/75/64 86/81/65
f 81/78/60 74/73/53 87/82/23
f 74/73/53 83/80/62 87/82/23
f 78/72/57 88/78/66 84/73/63
f 82/79/61 88/78/66 78/72/57
f 85/75/64 84/73/63 89/74/67
f 83/80/62 90/83/68 87/82/23
f 84/73/63 91/82/69 89/74/67
f 88/78/66 91/82/69 84/73/63
f 91/82/69 92/84/70 89/74/67
f 91/82/69 93/85/71 92/84/70
f 94/86/72 95/87/73 96/88/74
f 94/86/72 97/89/75 95/87/73
f 94/86/72 96/88/74 98/90/76
f 94/86/72 99/91/77 97/89/75
f 94/86/72 100/92/78 99/91/77
f 94/86/72 98/90/76 100/92/78
f 95/87/73 97/89/75 101/93/79
f 101/93/79 98/90/76 96/88/74
f 101/93/79 97/89/75 98/90/76
f 100/92/78 102/94/80 99/91/77
f 97/89/75 103/95/81 98/90/76
f 97/89/75 99/91/77 103/95/81
f 100/92/78 98/90/76 103/95/81
f 100/92/78 103/95/81 104/96/82
f 100/92/78 104/96/82 102/94/80
f 102/94/80 105/97/83 99/91/77
f 105/97/83 104/96/82 103/95/81
f 105/97/83 103/95/81 99/91/77
f 106/98/84 107/99/85 108/69/84
f 106/98/84 108/69/84 109/99/86
s 0
f 110/77/87 111/99/87 112/69/87
f 113/70/88 114/76/88 115/68/88
f 116/68/89 117/81/89 118/77/89
f 119/69/90 120/99/90 121/70/90
f 122/87/91 123/93/91 124/88/91
